<svg width="420" height="110" viewBox="0 0 420 110" fill="none" xmlns="http://www.w3.org/2000/svg" role="img" aria-labelledby="title"><title id="title">BellaBet placeholder logo</title><rect width="420" height="110" rx="28" fill="#111425"/><path d="M43 78V31h46c15 0 25 8 25 20 0 8-4 14-11 17 8 3 13 9 13 19 0 14-10 22-27 22H43Zm24-29h17c5 0 8-3 8-7s-3-7-8-7H67v14Zm0 38h20c6 0 9-3 9-8s-3-8-9-8H67v16Z" fill="#FFD95A"/><text x="135" y="72" fill="#F6F7FB" font-family="Arial, sans-serif" font-size="42" font-weight="800">BELLABET</text><circle cx="372" cy="36" r="13" fill="#FF4F8F"/></svg>
