<svg width="1600" height="720" viewBox="0 0 1600 720" fill="none" xmlns="http://www.w3.org/2000/svg">
  <defs>
    <radialGradient id="r1" cx="0" cy="0" r="1" gradientUnits="userSpaceOnUse" gradientTransform="translate(1160 170) rotate(118) scale(650 950)">
      <stop stop-color="#49ff6b" stop-opacity="0.54"/>
      <stop offset="0.38" stop-color="#06632f" stop-opacity="0.32"/>
      <stop offset="1" stop-color="#03110a" stop-opacity="0"/>
    </radialGradient>
    <linearGradient id="stripe" x1="0" y1="0" x2="1" y2="1">
      <stop stop-color="#6eff77" stop-opacity="0.0"/>
      <stop offset="0.5" stop-color="#6eff77" stop-opacity="0.38"/>
      <stop offset="1" stop-color="#6eff77" stop-opacity="0.0"/>
    </linearGradient>
    <filter id="blur"><feGaussianBlur stdDeviation="10"/></filter>
  </defs>
  <rect width="1600" height="720" fill="#020703"/>
  <rect width="1600" height="720" fill="url(#r1)"/>
  <path d="M0 598 C281 477 512 523 742 433 C940 355 1058 170 1600 96" stroke="url(#stripe)" stroke-width="7"/>
  <path d="M-40 654 C352 494 615 589 885 413 C1070 293 1231 159 1640 60" stroke="#2cff63" stroke-opacity="0.25" stroke-width="2"/>
  <g opacity="0.13">
    <path d="M1078 112 l60 -50 l120 90 l-60 50 z" fill="#3bff62"/>
    <path d="M1240 205 l50 -42 l100 76 l-50 42 z" fill="#ecfff0"/>
    <path d="M1010 246 l78 -64 l150 114 l-78 64 z" fill="#3bff62"/>
  </g>
  <g filter="url(#blur)" opacity="0.38">
    <circle cx="1320" cy="460" r="126" fill="#38ff5d"/>
    <circle cx="1196" cy="520" r="52" fill="#ffffff"/>
  </g>
  <text x="78" y="176" font-family="Arial Black, Impact, sans-serif" font-size="118" font-style="italic" font-weight="900" fill="#59ff5b" opacity="0.13">BELLABET</text>
  <text x="82" y="276" font-family="Pretendard, Arial, sans-serif" font-size="52" font-weight="900" fill="#eaffea" opacity="0.18">SPORTS · CASINO · MINI GAME</text>
</svg>
